<?xml version="1.0" encoding="UTF-8"?>
<svg width="200px" height="60px" viewBox="0 0 200 60" version="1.1" xmlns="http://www.w3.org/2000/svg" xmlns:xlink="http://www.w3.org/1999/xlink">
    <!-- Generator: sketchtool 63.1 (101010) - https://sketch.com -->
    <title>5B2527F1-1C9C-41C2-9FE0-33958BD22083</title>
    <desc>Created with sketchtool.</desc>
    <defs>
        <polygon id="path-1" points="0 0.151048951 163.202657 0.151048951 163.202657 59.1393007 0 59.1393007"></polygon>
        <polygon id="path-3" points="0 59.3872727 199.882517 59.3872727 199.882517 0.398461538 0 0.398461538"></polygon>
    </defs>
    <g id="Page-1" stroke="none" stroke-width="1" fill="none" fill-rule="evenodd">
        <g id="coming-sson" transform="translate(-74.000000, -42.000000)">
            <g id="logo" transform="translate(74.000000, 42.000000)">
                <path d="M39.4558042,23.5841958 L34.1788811,23.5841958 L34.1788811,33.8834965 L39.4558042,33.8834965 C40.4586014,33.8834965 40.9593007,33.393986 40.9593007,32.4121678 L40.9593007,25.0876923 C40.9593007,24.0848951 40.4586014,23.5841958 39.4558042,23.5841958" id="Fill-1" fill="#375FC3"></path>
                <path d="M58.2317483,23.5841958 L52.9548252,23.5841958 L52.9548252,33.8834965 L58.2317483,33.8834965 C59.2345455,33.8834965 59.7352448,33.393986 59.7352448,32.4121678 L59.7352448,25.0876923 C59.7352448,24.0848951 59.2345455,23.5841958 58.2317483,23.5841958" id="Fill-3" fill="#375FC3"></path>
                <path d="M88.6820979,31.6444755 L88.6820979,32.4123077 C88.6820979,33.3927273 89.173007,33.8836364 90.1534266,33.8836364 L94.952028,33.8836364 L94.952028,30.1731469 L90.1534266,30.1731469 C89.173007,30.1731469 88.6820979,30.6640559 88.6820979,31.6444755" id="Fill-5" fill="#375FC3"></path>
                <g id="Group-9" transform="translate(0.000000, 0.247413)">
                    <mask id="mask-2" fill="white">
                        <use xlink:href="#path-1"></use>
                    </mask>
                    <g id="Clip-8"></g>
                    <path d="M152.622238,29.9574825 L142.12993,29.9574825 L142.12993,32.1644755 C142.12993,33.1462937 142.620839,33.6358042 143.601259,33.6358042 L151.981678,33.6358042 L151.981678,35.6511888 L150.286573,36.8987413 L143.441818,36.8987413 C140.071189,36.8987413 138.387273,35.2148252 138.387273,31.8455944 L138.387273,25.1588811 C138.387273,21.791049 140.071189,20.1057343 143.441818,20.1057343 L147.59986,20.1057343 C150.948112,20.1057343 152.622238,21.791049 152.622238,25.1588811 L152.622238,29.9574825 Z M134.774685,23.3365035 L127.192867,23.3365035 C126.212448,23.3365035 125.722937,23.8386014 125.722937,24.84 L125.722937,32.1644755 C125.722937,33.1462937 126.212448,33.6358042 127.192867,33.6358042 L134.774685,33.6358042 L134.774685,35.6511888 L133.07958,36.8987413 L127.033427,36.8987413 C123.664196,36.8987413 121.98028,35.2148252 121.98028,31.8455944 L121.98028,25.1588811 C121.98028,21.791049 123.664196,20.1057343 127.033427,20.1057343 L133.07958,20.1057343 L134.774685,21.3532867 L134.774685,23.3365035 Z M117.566294,36.8987413 L113.854406,36.8987413 L113.854406,24.84 C113.854406,23.8386014 113.353706,23.3365035 112.352308,23.3365035 L107.073986,23.3365035 L107.073986,36.8987413 L103.331329,36.8987413 L103.331329,20.1057343 L112.543916,20.1057343 C115.890769,20.1057343 117.566294,21.791049 117.566294,25.1588811 L117.566294,36.8987413 Z M98.6613986,36.8987413 L89.9942657,36.8987413 C86.625035,36.8987413 84.9397203,35.2344056 84.9397203,31.9085315 C84.9397203,28.5826573 86.625035,26.9183217 89.9942657,26.9183217 L94.9523077,26.9183217 L94.9523077,24.84 C94.9523077,23.8386014 94.4502098,23.3365035 93.4474126,23.3365035 L86.666993,23.3365035 L86.666993,21.3532867 L88.3299301,20.1057343 L93.6404196,20.1057343 C96.9872727,20.1057343 98.6613986,21.791049 98.6613986,25.1588811 L98.6613986,36.8987413 Z M77.2627972,17.2581818 L81.1341259,17.2581818 L81.1341259,13.4833566 L77.2627972,13.4833566 L77.2627972,17.2581818 Z M77.3271329,36.8987413 L81.0697902,36.8987413 L81.0697902,20.1057343 L77.3271329,20.1057343 L77.3271329,36.8987413 Z M73.7131469,37.1868531 C69.811049,37.1868531 67.86,35.2344056 67.86,31.3323077 L67.86,13.2288112 L71.6026573,13.2288112 L71.6026573,31.7169231 C71.6026573,33.081958 72.3061538,33.8288112 73.7131469,33.9560839 L73.7131469,37.1868531 Z M63.446014,31.8455944 C63.446014,35.2148252 61.7718881,36.8987413 58.4236364,36.8987413 L52.9537063,36.8987413 L52.9537063,43.2959441 L49.2124476,43.2959441 L49.2124476,20.1057343 L58.4236364,20.1057343 C61.7718881,20.1057343 63.446014,21.791049 63.446014,25.1588811 L63.446014,31.8455944 Z M44.6697902,31.8455944 C44.6697902,35.2148252 42.9956643,36.8987413 39.6474126,36.8987413 L34.1774825,36.8987413 L34.1774825,43.2959441 L30.4362238,43.2959441 L30.4362238,20.1057343 L39.6474126,20.1057343 C42.9956643,20.1057343 44.6697902,21.791049 44.6697902,25.1588811 L44.6697902,31.8455944 Z M25.7662937,36.8987413 L17.0977622,36.8987413 C13.7285315,36.8987413 12.0432168,35.2344056 12.0432168,31.9085315 C12.0432168,28.5826573 13.7285315,26.9183217 17.0977622,26.9183217 L22.0558042,26.9183217 L22.0558042,24.84 C22.0558042,23.8386014 21.5551049,23.3365035 20.5523077,23.3365035 L13.7718881,23.3365035 L13.7718881,21.3532867 L15.4348252,20.1057343 L20.7439161,20.1057343 C24.0921678,20.1057343 25.7662937,21.791049 25.7662937,25.1588811 L25.7662937,36.8987413 Z M157.731329,9.58125874 C145.271189,6.70573427 113.385874,0.15048951 81.5942657,0.15048951 C49.8138462,0.15048951 17.9313287,6.70573427 5.47118881,9.58125874 C2.28517483,10.3169231 -0.00013986014,13.5756643 -0.00013986014,17.3658741 L-0.00013986014,41.9393007 C-0.00013986014,45.7309091 2.28657343,48.9896503 5.47258741,49.7239161 C17.9341259,52.5966434 49.8152448,59.1393007 81.5942657,59.1393007 C113.383077,59.1393007 145.266993,52.5966434 157.72993,49.7239161 C160.917343,48.9896503 163.202657,45.7309091 163.202657,41.9393007 L163.202657,17.3658741 C163.202657,13.5756643 160.918741,10.3169231 157.731329,9.58125874 L157.731329,9.58125874 Z" id="Fill-7" fill="#375FC3" mask="url(#mask-2)"></path>
                </g>
                <path d="M15.786014,31.6444755 L15.786014,32.4123077 C15.786014,33.3927273 16.2769231,33.8836364 17.2573427,33.8836364 L22.0559441,33.8836364 L22.0559441,30.1731469 L17.2573427,30.1731469 C16.2769231,30.1731469 15.786014,30.6640559 15.786014,31.6444755" id="Fill-10" fill="#375FC3"></path>
                <path d="M147.407552,23.5841958 L143.600559,23.5841958 C142.62014,23.5841958 142.130629,24.0848951 142.130629,25.0876923 L142.130629,27.1981818 L148.911049,27.1981818 L148.911049,25.0876923 C148.911049,24.0848951 148.41035,23.5841958 147.407552,23.5841958" id="Fill-12" fill="#375FC3"></path>
                <mask id="mask-4" fill="white">
                    <use xlink:href="#path-3"></use>
                </mask>
                <g id="Clip-15"></g>
                <polygon id="Fill-14" fill="#375FC3" mask="url(#mask-4)" points="168.247552 37.4334266 172.437762 37.4334266 172.437762 33.2432168 168.247552 33.2432168"></polygon>
                <path d="M177.074126,37.4348252 L180.816783,37.4348252 L180.816783,20.6418182 L177.074126,20.6418182 L177.074126,37.4348252 Z M177.011189,17.7942657 L180.881119,17.7942657 L180.881119,14.0194406 L177.011189,14.0194406 L177.011189,17.7942657 Z" id="Fill-16" fill="#375FC3" mask="url(#mask-4)"></path>
                <path d="M189.070629,32.7002797 C189.070629,33.6820979 189.561538,34.1716084 190.541958,34.1716084 L194.667832,34.1716084 C195.670629,34.1716084 196.171329,33.6820979 196.171329,32.7002797 L196.171329,25.3758042 C196.171329,24.373007 195.670629,23.8723077 194.667832,23.8723077 L190.541958,23.8723077 C189.561538,23.8723077 189.070629,24.373007 189.070629,25.3758042 L189.070629,32.7002797 Z M185.327972,32.38 L185.327972,25.6946853 C185.327972,22.3268531 187.011888,20.6415385 190.381119,20.6415385 L194.860839,20.6415385 C198.207692,20.6415385 199.881818,22.3268531 199.881818,25.6946853 L199.881818,32.38 C199.881818,35.7506294 198.207692,37.4345455 194.860839,37.4345455 L190.381119,37.4345455 C187.011888,37.4345455 185.327972,35.7506294 185.327972,32.38 L185.327972,32.38 Z" id="Fill-17" fill="#375FC3" mask="url(#mask-4)"></path>
            </g>
        </g>
    </g>
</svg>