<svg width="119" height="64" viewBox="0 0 119 64" fill="none" xmlns="http://www.w3.org/2000/svg">
<path d="M71.4765 30.4793C71.3809 30.4727 71.285 30.4857 71.1946 30.5177C71.1042 30.5496 71.0213 30.5997 70.9509 30.6649C70.8805 30.7301 70.8241 30.8091 70.7852 30.897C70.7463 30.9849 70.7256 31.0798 70.7245 31.1759C70.7244 31.2594 70.7452 31.3416 70.7851 31.4149C70.825 31.4882 70.8826 31.5502 70.9527 31.5952C71.143 31.7216 71.3672 31.7868 71.5954 31.7823C72.1995 31.7823 72.6108 31.5146 73.0671 30.934C72.5757 30.6744 72.0366 30.5186 71.4829 30.476L71.4765 30.4793Z" fill="#0056B9"/>
<path d="M44.4258 42.1001H43.5164V43.745H44.4483C44.6989 43.7604 44.9456 43.6771 45.1359 43.5128C45.2154 43.4382 45.2785 43.3477 45.3211 43.2471C45.3637 43.1466 45.3849 43.0382 45.3834 42.929C45.3879 42.8143 45.3669 42.7001 45.3219 42.5947C45.2768 42.4892 45.2089 42.3952 45.1231 42.3194C44.9226 42.1681 44.6764 42.0907 44.4258 42.1001Z" fill="#0056B9"/>
<path d="M26.0288 22.6288C26.1952 22.2361 26.3034 21.821 26.3502 21.3968C26.3035 21.4155 26.2601 21.4417 26.2216 21.4742C26.0955 21.5938 25.9814 21.7256 25.881 21.8677C25.5508 22.3398 25.2596 22.8381 25.0102 23.3578C24.493 24.444 24.0631 25.57 23.7248 26.725C24.2589 26.0107 24.737 25.2558 25.1548 24.4673C25.4811 23.8718 25.773 23.258 26.0288 22.6288Z" fill="#0056B9"/>
<path d="M60.493 44.1643H61.9197L61.2031 42.4194L60.493 44.1643Z" fill="#0056B9"/>
<path d="M37.9603 42.1001H37.0477V43.745H37.9828C38.2334 43.7604 38.4801 43.6771 38.6705 43.5128C38.7496 43.438 38.8122 43.3474 38.8542 43.2469C38.8963 43.1463 38.9169 43.038 38.9147 42.929C38.9222 42.814 38.9025 42.6988 38.8573 42.5929C38.8121 42.487 38.7426 42.3933 38.6544 42.3194C38.4554 42.1676 38.21 42.0901 37.9603 42.1001Z" fill="#0056B9"/>
<path d="M27.5167 36.9847C27.5112 37.0249 27.5191 37.0657 27.5392 37.1008C27.5392 37.1008 27.5392 37.1008 27.6099 37.1008C27.9055 37.1008 28.2172 36.8654 28.5193 36.4138C28.7341 36.0712 28.9149 35.7082 29.0591 35.3301C28.7091 35.5569 28.381 35.8161 28.079 36.1042C27.8111 36.3374 27.6159 36.6431 27.5167 36.9847Z" fill="#0056B9"/>
<path d="M52.0577 26.9572C51.7984 26.9911 51.5611 27.1211 51.3925 27.3217C51.0992 27.6209 50.8503 27.9609 50.6534 28.3312C50.2024 29.1204 49.9385 30.0033 49.8822 30.9115C49.871 31.084 49.9019 31.2567 49.9722 31.4146C50.0204 31.4952 50.0493 31.5178 50.1842 31.5178C50.422 31.4554 50.635 31.3214 50.7948 31.134C51.0999 30.8116 51.3663 30.4543 51.5885 30.0697C52.0962 29.2214 52.4947 28.1732 52.4947 27.5378C52.5065 27.3777 52.4583 27.219 52.3598 27.0927C52.3226 27.049 52.2762 27.0142 52.2239 26.9908C52.1717 26.9674 52.1149 26.9559 52.0577 26.9572Z" fill="#0056B9"/>
<path d="M30.1292 44.1643H31.5527L30.8394 42.4194L30.1292 44.1643Z" fill="#0056B9"/>
<path d="M103.473 28.6408C103.341 28.844 103.302 28.8924 103.129 29.1762C102.955 29.4601 102.785 29.7439 102.66 29.9729C102.595 30.0858 102.541 30.1858 102.509 30.2599C102.495 30.2936 102.483 30.3281 102.473 30.3632C102.464 30.8262 102.528 31.2877 102.663 31.7307C102.711 31.8764 102.788 32.0105 102.891 32.1242C102.924 32.1605 102.964 32.1893 103.009 32.2088C103.054 32.2283 103.102 32.2379 103.151 32.2371C103.265 32.2263 103.374 32.1873 103.469 32.1237C103.564 32.0601 103.641 31.9738 103.694 31.8726C103.87 31.5806 103.962 31.2459 103.961 30.905C103.929 30.4036 103.834 29.9084 103.678 29.431C103.601 29.1537 103.524 28.8924 103.473 28.6408Z" fill="#0056B9"/>
<path d="M98.1094 12.4239C88.2956 7.28277 74.6192 4.06068 59.5 4.06068C44.3808 4.06068 30.7076 7.28277 20.8873 12.4239C11.0671 17.5651 5.24433 24.5124 5.24433 32.0016C5.24433 39.4908 11.0767 46.4446 20.8873 51.5761C30.698 56.7075 44.3808 59.9393 59.4968 59.9393C74.6128 59.9393 88.2924 56.714 98.1062 51.5761C107.92 46.4381 113.756 39.4747 113.756 32.0016C113.756 24.5285 107.926 17.5651 98.1094 12.4239ZM19.5377 20.8452C19.389 20.7392 19.2089 20.6869 19.0268 20.6969C18.7709 20.6852 18.5153 20.7248 18.2748 20.8134C18.0344 20.902 17.8139 21.0378 17.6264 21.2129C17.4388 21.3879 17.2879 21.5987 17.1824 21.833C17.0769 22.0672 17.0189 22.3202 17.0119 22.5772C17.0119 23.6513 17.6546 24.7188 18.3519 25.8025C19.0493 26.8863 19.7594 28.0022 19.7594 29.2246C19.744 29.8074 19.5982 30.3793 19.3329 30.8979C19.0676 31.4166 18.6895 31.8687 18.2266 32.2209C17.3015 32.9765 16.148 33.3939 14.9553 33.4046C11.6487 33.4046 9.68208 31.4081 9.68208 29.6407C9.68208 28.7118 10.418 27.9377 11.2663 27.383C12.0071 26.8634 12.8721 26.5506 13.7728 26.4766H13.8467C13.9154 26.4811 13.9825 26.4993 14.0442 26.53C14.1059 26.5607 14.1609 26.6034 14.206 26.6556C14.2512 26.7078 14.2855 26.7684 14.3071 26.834C14.3287 26.8997 14.3372 26.9689 14.3319 27.0378C14.3277 27.1829 14.2692 27.3211 14.168 27.4249C14.0684 27.5189 13.9609 27.6041 13.8467 27.6797C13.5441 27.9033 13.2709 28.1645 13.0337 28.457C12.7869 28.7874 12.6599 29.1925 12.6738 29.6052C12.6979 30.125 12.9171 30.6163 13.2872 30.9807C13.6574 31.345 14.1511 31.5553 14.6693 31.5694C15.2392 31.5922 15.7956 31.3922 16.2214 31.0114C16.4202 30.813 16.5755 30.5751 16.6773 30.313C16.7792 30.0508 16.8253 29.7702 16.8127 29.4891C16.8127 28.6634 16.17 27.6829 15.5048 26.6121C14.8396 25.5413 14.1263 24.3544 14.1263 23.0643C14.1263 21.7741 14.8461 20.7807 15.839 20.1099C16.864 19.4446 18.06 19.0938 19.2806 19.1003C19.946 19.0802 20.6067 19.2183 21.2087 19.5035C21.4753 19.6261 21.7022 19.8214 21.8636 20.0672C22.0249 20.313 22.1142 20.5994 22.1213 20.8936C22.1213 21.6838 21.5782 22.4095 20.9709 22.961C20.6893 23.2184 20.38 23.4434 20.0486 23.6319C19.8033 23.7895 19.5229 23.8837 19.2324 23.9061C19.0879 23.9043 18.9498 23.8465 18.8468 23.7448C18.7927 23.7001 18.7491 23.644 18.7191 23.5804C18.6891 23.5169 18.6734 23.4474 18.6733 23.3771C18.6731 23.2703 18.702 23.1655 18.7568 23.0739C18.8187 22.9698 18.8885 22.8705 18.9657 22.7772C19.287 22.3547 19.7048 21.7096 19.7048 21.2323C19.7107 21.1589 19.6986 21.0853 19.6694 21.0178C19.6403 20.9503 19.595 20.891 19.5377 20.8452ZM32.4557 46.4123L31.9673 45.2061H29.7179L29.2294 46.4123H28.0147L30.3091 41.0002H31.3985L33.6929 46.4123H32.4557ZM40.1101 42.8967C40.1162 43.18 40.0591 43.461 39.943 43.7192C39.8335 43.9502 39.673 44.1531 39.4739 44.3126C39.2696 44.4751 39.0361 44.5966 38.7862 44.6707C38.5128 44.7508 38.2291 44.7899 37.9443 44.7868H37.0477V46.3994H35.8716V41.0357H38.0599C38.3507 41.0316 38.64 41.0786 38.9147 41.1744C39.154 41.2512 39.3735 41.38 39.5574 41.5518C39.7359 41.7152 39.8754 41.917 39.9655 42.142C40.0646 42.381 40.1138 42.6379 40.1101 42.8967ZM46.5755 42.8967C46.5816 43.18 46.5246 43.461 46.4085 43.7192C46.3001 43.95 46.1408 44.153 45.9425 44.3126C45.7367 44.4745 45.5023 44.596 45.2516 44.6707C44.9793 44.751 44.6967 44.7901 44.4129 44.7868H43.5164V46.3994H42.337V41.0357H44.5286C44.8194 41.0319 45.1086 41.0788 45.3834 41.1744C45.622 41.2527 45.8411 41.3814 46.0261 41.5518C46.2034 41.7156 46.3418 41.9173 46.431 42.142C46.5301 42.381 46.5793 42.6379 46.5755 42.8967ZM52.6522 46.3994H48.796V41.0357H49.9722V45.3383H52.6425L52.6522 46.3994ZM56.1291 46.3994H54.9498V41.0357H56.1259L56.1291 46.3994ZM62.8227 46.3994L62.3407 45.2061H60.0913L59.5996 46.4123H58.3978L60.6954 41.0002H61.7815L64.0759 46.4123L62.8227 46.3994ZM65.5123 31.8339C65.4753 31.8924 65.4345 31.9484 65.3902 32.0016C65.3902 32.0016 64.3459 33.4111 62.9705 33.4111C61.5341 33.4111 60.4383 32.4693 60.4383 31.2662C60.4704 30.4907 60.6368 29.7267 60.93 29.0085C61.1758 28.4427 61.333 27.8422 61.3959 27.2281C61.3959 27.2281 61.3959 27.2281 61.3766 27.2056C61.343 27.1814 61.3023 27.1689 61.261 27.1701C60.8561 27.1701 60.1587 27.6474 59.6028 28.6215C58.9187 29.9011 58.5766 31.3368 58.6099 32.7886C58.6166 32.8819 58.6019 32.9756 58.5668 33.0623C58.5317 33.149 58.4771 33.2264 58.4074 33.2885C58.2744 33.3791 58.1145 33.4212 57.9543 33.4078C57.4758 33.4217 57.0019 33.3106 56.579 33.0853C56.3311 32.9409 56.143 32.712 56.0488 32.4403C55.4594 33.0228 54.677 33.3672 53.8508 33.4078C53.3237 33.4231 52.8063 33.2632 52.379 32.9531C52.0956 32.711 51.888 32.3917 51.7813 32.0339C51.6103 32.2184 51.4279 32.3918 51.235 32.5531C50.6769 33.0592 49.9644 33.3605 49.2138 33.4078C48.8249 33.4044 48.4447 33.2921 48.116 33.0836C47.7873 32.875 47.5231 32.5785 47.3532 32.2274C46.7587 32.8176 45.9393 33.4078 44.9367 33.4078C44.2509 33.4291 43.5806 33.1999 43.0504 32.7628C42.8136 32.5536 42.6248 32.2953 42.4972 32.0057C42.3696 31.7161 42.3062 31.4022 42.3113 31.0856C42.3273 30.3188 42.4967 29.5631 42.8094 28.8634C43.0355 28.4185 43.1906 27.9407 43.2689 27.4475C43.2689 27.3765 43.2529 27.3604 43.2432 27.3539C43.234 27.345 43.2228 27.3382 43.2105 27.3343C43.1982 27.3304 43.1852 27.3294 43.1725 27.3313C42.9037 27.4378 42.6691 27.6163 42.4945 27.8474C42.0847 28.355 41.7591 28.9257 41.5305 29.5375C41.0718 30.5537 40.81 31.6483 40.7592 32.7628C40.7666 32.8559 40.7525 32.9494 40.7179 33.0362C40.6834 33.1229 40.6293 33.2004 40.56 33.2627C40.4281 33.3558 40.2673 33.3981 40.1069 33.382C39.6273 33.3963 39.1522 33.2852 38.7283 33.0595C38.5455 32.9697 38.3897 32.8328 38.2768 32.6628C38.1639 32.4929 38.0979 32.2958 38.0856 32.0919C38.1406 31.1865 38.3324 30.2947 38.6544 29.4472C38.934 28.5957 39.1975 27.8151 39.1975 27.4507C39.1997 27.4023 39.1921 27.354 39.175 27.3088C39.175 27.3088 39.175 27.3088 39.1011 27.3088C38.8629 27.3424 38.6432 27.4561 38.4777 27.6313C38.1612 27.9416 37.9012 28.3051 37.7097 28.7053C37.0909 29.9794 36.7878 31.3846 36.826 32.8015C36.8325 32.8953 36.8177 32.9893 36.7826 33.0765C36.7475 33.1637 36.6931 33.2417 36.6235 33.3046C36.4908 33.3955 36.3304 33.4366 36.1704 33.4207C35.692 33.4339 35.2182 33.3228 34.7951 33.0982C34.6526 33.0174 34.5285 32.9077 34.4306 32.7761C34.3327 32.6445 34.2631 32.4939 34.2263 32.3338C33.5875 32.8762 32.8914 33.3466 32.1504 33.7368C31.871 34.8714 31.426 35.9583 30.8297 36.9621C30.187 37.9297 29.3065 38.6167 28.0822 38.6167C26.8579 38.6167 25.7075 37.7362 25.7075 36.5687C25.7075 35.8236 26.1959 35.2269 26.9254 34.727C27.7918 34.1918 28.7102 33.7466 29.6664 33.3982C29.7564 33.0756 29.8046 32.8015 29.8689 32.5048C29.2781 33.0499 28.5172 33.3725 27.7159 33.4175C27.316 33.3964 26.9283 33.2718 26.5905 33.0559C26.2526 32.84 25.9762 32.5402 25.7878 32.1854C25.1869 32.7918 24.3514 33.4175 23.3167 33.4175C22.9101 33.4288 22.5053 33.3576 22.1268 33.2081C21.7482 33.0586 21.4037 32.8338 21.1138 32.5474C20.8239 32.261 20.5946 31.9187 20.4398 31.5411C20.2849 31.1636 20.2076 30.7585 20.2125 30.3502C20.2125 28.3957 20.9227 25.7606 21.9767 23.5771C22.4388 22.5697 23.0462 21.6362 23.7794 20.8065C24.4446 20.0937 25.1805 19.6261 25.9549 19.6261C26.4222 19.6556 26.8633 19.8531 27.1974 20.1824C27.5314 20.5118 27.736 20.9509 27.7737 21.4193C27.7269 22.0227 27.5632 22.611 27.2917 23.1513C26.949 23.9055 26.5549 24.6351 26.1124 25.3349C25.2833 26.7246 24.2704 27.9951 23.1014 29.1117C23.0212 29.546 22.976 29.9861 22.9664 30.4277C22.9524 30.7557 23.0449 31.0794 23.2299 31.3501C23.3115 31.4565 23.4175 31.5415 23.539 31.5976C23.6604 31.6538 23.7937 31.6796 23.9272 31.6726C24.354 31.6094 24.7434 31.3928 25.023 31.063C25.2636 30.8212 25.4789 30.5553 25.6657 30.2696C25.9853 28.7688 26.4381 27.2997 27.0186 25.88C27.0787 25.7352 27.1792 25.611 27.3081 25.5222C27.4369 25.4335 27.5886 25.3842 27.7448 25.38C28.1538 25.416 28.5403 25.5834 28.847 25.8574C28.9916 25.9761 29.124 26.109 29.2423 26.2541C29.367 26.3682 29.442 26.5269 29.4511 26.696C29.4511 27.2862 29.1298 28.0409 28.8277 28.8892C28.4936 29.6975 28.2918 30.5546 28.23 31.4275C28.2264 31.5173 28.2499 31.6062 28.2975 31.6823C28.3085 31.7048 28.3262 31.7233 28.348 31.7354C28.3698 31.7475 28.3948 31.7526 28.4196 31.75C28.7124 31.7054 28.9835 31.5687 29.1941 31.3598C29.4686 31.1264 29.7022 30.8484 29.885 30.5373C30.5662 29.2923 31.0611 27.2088 31.4403 25.9122C31.4893 25.7499 31.5908 25.6085 31.7286 25.5104C31.8665 25.4123 32.033 25.3631 32.2018 25.3704C32.6053 25.4079 32.9856 25.5766 33.2848 25.8509C33.4366 25.9656 33.5756 26.0965 33.6993 26.2412C33.824 26.3553 33.899 26.514 33.9082 26.6831C33.8922 26.9472 33.8535 27.2094 33.7925 27.4668C33.7186 27.8151 33.619 28.2473 33.5033 28.7182C33.2687 29.66 32.9699 30.7663 32.6967 31.7049L32.6453 31.8984C33.2922 31.4701 33.8708 30.946 34.3613 30.3438C34.675 28.8774 35.127 27.4443 35.7109 26.0638C35.7692 25.9166 35.8696 25.79 35.9993 25.6999C36.1291 25.6098 36.2826 25.5602 36.4404 25.5574C36.6808 25.56 36.9153 25.6328 37.1152 25.7671C37.3847 25.9632 37.6175 26.2056 37.8029 26.4831C38.002 26.3045 38.2172 26.1447 38.4456 26.0057C39.0111 25.6245 39.6679 25.4018 40.3479 25.3607C40.5617 25.3582 40.7739 25.3985 40.972 25.4794C41.1701 25.5602 41.3501 25.68 41.5015 25.8316C41.7121 26.059 41.8768 26.3251 41.9868 26.6153C42.1951 26.4315 42.4199 26.2674 42.6584 26.1251C43.26 25.6903 43.9719 25.4354 44.7118 25.3897C45.1385 25.406 45.542 25.5889 45.8365 25.8993C45.9927 26.0394 46.1195 26.2095 46.2095 26.3994C46.2994 26.5894 46.3507 26.7955 46.3602 27.0056C46.3602 27.6087 46.0389 28.2957 45.7626 29.0085C45.4426 29.7023 45.251 30.4488 45.197 31.2114C45.1887 31.3411 45.225 31.4698 45.2998 31.5759C45.3317 31.6124 45.3713 31.6412 45.4159 31.6602C45.4604 31.6792 45.5086 31.6878 45.5569 31.6855C45.8994 31.6453 46.2185 31.4908 46.4631 31.2469C46.7191 31.0132 46.9506 30.7538 47.154 30.4728C47.3475 29.1917 47.8965 27.9912 48.7382 27.0088C49.5576 26.0412 50.5988 25.3962 51.6528 25.3962C52.2656 25.378 52.8694 25.5467 53.3848 25.88C53.5541 25.9924 53.7039 26.1318 53.8283 26.2928C54.1284 26.3002 54.4233 26.3728 54.6927 26.5057C54.8632 26.5877 55.0078 26.7155 55.1104 26.8749C55.2131 27.0343 55.2698 27.219 55.2743 27.4088C55.2543 27.6707 55.1925 27.9277 55.0912 28.1699C54.9883 28.4925 54.8534 28.8376 54.7184 29.2182C54.4339 29.9166 54.2541 30.6535 54.185 31.4049C54.185 31.5952 54.2653 31.6888 54.471 31.6888C54.8594 31.6383 55.2178 31.4521 55.4832 31.163C55.7332 30.9214 55.9562 30.6532 56.1484 30.3631C56.4687 28.9032 56.916 27.4743 57.4852 26.0928C57.5447 25.9459 57.6458 25.8196 57.776 25.7296C57.9062 25.6396 58.0598 25.5899 58.2178 25.5865C58.4576 25.5907 58.6913 25.6622 58.8927 25.7929C59.164 25.9918 59.3979 26.2375 59.5835 26.5186C60.3922 25.8254 61.4127 25.4305 62.4756 25.3994C62.7198 25.4084 62.9597 25.4671 63.1806 25.5719C63.4015 25.6767 63.599 25.8254 63.761 26.009C64.0983 26.3411 64.2971 26.7897 64.3169 27.2636C64.2589 27.9468 64.0861 28.6153 63.806 29.2407C63.5363 29.8692 63.3734 30.5386 63.324 31.2211C63.3157 31.3508 63.352 31.4795 63.4268 31.5855C63.4573 31.6237 63.4968 31.6536 63.5416 31.6728C63.5865 31.6919 63.6353 31.6996 63.6839 31.6952C63.8478 31.6422 63.9988 31.5554 64.1273 31.4404C64.2321 31.3514 64.3309 31.2555 64.423 31.1533C64.4854 31.0548 64.5699 30.9722 64.6698 30.9123C64.7697 30.8523 64.8821 30.8167 64.9982 30.8082C65.1221 30.8043 65.2444 30.8363 65.3506 30.9005C65.4567 30.9647 65.5421 31.0584 65.5964 31.1702C65.6507 31.282 65.6717 31.4071 65.6568 31.5306C65.6419 31.6541 65.5917 31.7706 65.5123 31.8661V31.8339ZM70.9752 46.3994H69.9887L67.3954 42.9838V46.4123H66.2321V41.0357H67.3183L69.828 44.3481V41.0357H70.9912L70.9752 46.3994ZM77.9033 45.9285C77.751 46.0482 77.5861 46.151 77.4117 46.2349C77.2295 46.3208 77.0373 46.3836 76.8397 46.422C76.608 46.4687 76.3722 46.4914 76.1359 46.4897C75.7609 46.493 75.3892 46.4194 75.0434 46.2736C74.7158 46.1405 74.4185 45.9421 74.1694 45.6904C73.9203 45.4388 73.7246 45.139 73.5941 44.8093C73.4572 44.4646 73.3874 44.0968 73.3885 43.7256V43.7095C73.3825 42.9793 73.663 42.2761 74.1693 41.7517C74.4189 41.4935 74.7186 41.2894 75.0498 41.1518C75.4068 41.0019 75.7907 40.9272 76.1777 40.9325C76.4063 40.9304 76.6345 40.9509 76.859 40.9938C77.0531 41.03 77.2427 41.0874 77.4245 41.1647C77.5891 41.2328 77.7454 41.3193 77.8905 41.4228C78.0313 41.5259 78.1644 41.6391 78.289 41.7614L77.537 42.629C77.344 42.4519 77.1278 42.3021 76.8943 42.1839C76.6683 42.0739 76.4193 42.0197 76.1681 42.0259C75.947 42.0209 75.7275 42.0649 75.5254 42.1549C75.3394 42.2416 75.1723 42.3644 75.0337 42.5161C74.8945 42.6743 74.7856 42.8569 74.7124 43.0548C74.6349 43.2608 74.5968 43.4796 74.5999 43.6998C74.5927 44.1356 74.7448 44.559 75.0273 44.89C75.1653 45.0518 75.3377 45.1804 75.5318 45.2663C75.7259 45.3523 75.9367 45.3934 76.1488 45.3867C76.4169 45.3965 76.6831 45.3389 76.9232 45.219C77.1563 45.0935 77.3723 44.9385 77.5659 44.7577L78.3147 45.5157C78.1937 45.6674 78.0616 45.8097 77.9194 45.9414L77.9033 45.9285ZM75.1302 32.0081C74.7292 32.4589 74.2359 32.8173 73.684 33.059C73.1321 33.3006 72.5347 33.4196 71.9328 33.4078C71.1564 33.4212 70.3924 33.2108 69.7316 32.8015C69.4243 32.6171 69.1684 32.3578 68.9875 32.0477C68.8066 31.7376 68.7067 31.3867 68.6968 31.0276C68.6971 30.6779 68.7759 30.3329 68.9272 30.018C69.0785 29.7031 69.2985 29.4264 69.5709 29.2085C70.0692 28.7992 70.6912 28.5718 71.3351 28.5634C72.2934 28.611 73.2279 28.8792 74.0665 29.3472L74.1629 29.1795C74.6578 28.2764 75.2651 26.5766 75.8339 25.051C76.1167 24.2899 76.3962 23.5674 76.6533 22.9997C76.7626 22.7487 76.8881 22.5052 77.0293 22.2708C77.1211 22.0913 77.2545 21.9365 77.4181 21.8193C78.1344 21.3292 78.9719 21.0478 79.8378 21.0065C79.9948 20.9965 80.1493 21.0486 80.2684 21.1516C80.3583 21.2498 80.4057 21.3797 80.4002 21.5129C80.4018 21.5834 80.3804 21.6525 80.3391 21.7096C80.3111 21.7588 80.2799 21.8062 80.2459 21.8515C80.1752 21.9483 80.0821 22.0644 79.976 22.2063C79.7073 22.5597 79.4777 22.9415 79.2915 23.3449C79.1984 23.5642 78.8127 24.6963 78.3275 26.0122C77.8322 27.3789 77.2438 28.7098 76.5666 29.9955C76.4605 30.1987 76.3545 30.3696 76.2452 30.547C77.1867 31.0663 78.0994 31.4791 78.9831 31.4791C79.2965 31.4911 79.6091 31.4385 79.9016 31.3248C80.1941 31.211 80.4604 31.0384 80.684 30.8176C80.9076 30.5968 81.0839 30.3324 81.2019 30.0407C81.32 29.749 81.3774 29.4362 81.3706 29.1214C81.3829 28.6554 81.2625 28.1955 81.0236 27.7958C80.9004 27.5755 80.6963 27.4123 80.4548 27.341C80.1493 27.4709 79.8224 27.5431 79.4908 27.5539C79.186 27.5598 78.8878 27.4645 78.6424 27.283C78.5231 27.191 78.4263 27.0728 78.3595 26.9376C78.2927 26.8023 78.2575 26.6534 78.2568 26.5024C78.2552 26.3465 78.2881 26.1921 78.3531 26.0505C78.4182 25.9088 78.5137 25.7834 78.6328 25.6832C78.8683 25.5015 79.1585 25.406 79.4554 25.4123C79.8384 25.4196 80.2184 25.4826 80.5834 25.5994C80.7858 25.4832 82.1419 24.6608 82.1419 23.0707C82.1506 22.7187 82.07 22.3703 81.9075 22.0583C81.745 21.7462 81.5061 21.4808 81.2132 21.2871C80.573 20.8569 79.8177 20.632 79.0473 20.642C77.3571 20.642 76.0428 21.1162 75.1591 21.8419C74.739 22.1726 74.3991 22.5946 74.1648 23.0761C73.9305 23.5577 73.8079 24.0862 73.8062 24.6221C73.7955 25.0126 73.9387 25.3916 74.2047 25.6768C74.3075 25.7961 74.4136 25.8929 74.5067 25.9993C74.5709 26.0417 74.624 26.099 74.6615 26.1664C74.699 26.2338 74.7197 26.3092 74.722 26.3863C74.7265 26.4724 74.7125 26.5585 74.6809 26.6386C74.6493 26.7187 74.6009 26.7911 74.5389 26.8508C74.4105 26.9521 74.2485 27.0005 74.0858 26.9862C73.3688 26.9485 72.6766 26.7105 72.087 26.2992C71.4251 25.8574 70.8595 25.1865 70.8595 24.335C70.8595 22.8159 71.9296 21.5 73.4688 20.5743C75.1786 19.5962 77.1147 19.0867 79.0827 19.0971C80.457 19.0641 81.8155 19.398 83.0191 20.0647C84.086 20.7098 84.809 21.7096 84.809 23.0126C84.809 24.2092 84.1085 25.1317 83.4144 25.7509C83.1151 26.0153 82.7924 26.2518 82.4504 26.4573L82.37 26.5024C82.6338 26.6536 82.8796 26.8343 83.1027 27.0411C83.4888 27.4012 83.7899 27.8435 83.9837 28.3356C84.1775 28.8276 84.2593 29.3569 84.2229 29.8848C84.1866 30.4126 84.033 30.9256 83.7736 31.3862C83.5142 31.8468 83.1554 32.2433 82.7235 32.5467C81.831 33.1385 80.782 33.4475 79.7125 33.4337C78.0094 33.4207 76.4798 32.7305 75.1462 32.021L75.1302 32.0081ZM84.6933 46.3994H80.6315V41.0357H84.6708V42.0904H81.8012V43.1806H84.327V44.232H81.8012V45.3609H84.7094L84.6933 46.3994ZM90.9595 44.8093C90.965 45.0548 90.9156 45.2984 90.8149 45.5221C90.7216 45.7251 90.583 45.9039 90.41 46.0446C90.225 46.1898 90.0147 46.2991 89.7898 46.3672C89.5318 46.4411 89.2644 46.477 88.9961 46.4736C88.5865 46.4764 88.1797 46.4065 87.7943 46.2672C87.3982 46.1241 87.0337 45.905 86.721 45.6221L87.4183 44.7835C87.6474 44.9755 87.9001 45.137 88.1703 45.2641C88.437 45.3838 88.7264 45.4443 89.0186 45.4415C89.2159 45.4533 89.4124 45.4073 89.5842 45.3093C89.6485 45.2709 89.7015 45.216 89.7376 45.1502C89.7738 45.0845 89.7918 45.0102 89.7898 44.9351V44.919C89.793 44.8495 89.7775 44.7804 89.7449 44.719C89.7099 44.647 89.6538 44.5873 89.5842 44.5481C89.4827 44.4864 89.375 44.4356 89.2628 44.3965C89.0848 44.333 88.9035 44.2792 88.7198 44.2352C88.4699 44.1773 88.2241 44.1029 87.9839 44.0127C87.7844 43.9419 87.5969 43.8407 87.428 43.7127C87.2755 43.5915 87.1524 43.4371 87.0681 43.2612C86.9813 43.0497 86.9397 42.8222 86.9459 42.5936C86.9424 42.3716 86.9872 42.1516 87.0771 41.9488C87.167 41.7461 87.2999 41.5654 87.4665 41.4195C87.6434 41.2748 87.8463 41.1653 88.0642 41.097C88.3094 41.0192 88.5654 40.9811 88.8226 40.9841C89.5433 40.979 90.244 41.2214 90.8085 41.6711L90.1947 42.5613C89.9742 42.409 89.7383 42.2803 89.491 42.1775C89.274 42.0825 89.04 42.0332 88.8033 42.0324C88.6197 42.0194 88.4369 42.067 88.2827 42.1678C88.2315 42.2045 88.1896 42.2529 88.1606 42.3089C88.1315 42.365 88.1161 42.4272 88.1156 42.4903V42.5065C88.1128 42.5853 88.1282 42.6637 88.1606 42.7355C88.2068 42.8066 88.2697 42.8653 88.3438 42.9064C88.4561 42.9674 88.5746 43.0161 88.6973 43.0515L89.2693 43.2096C89.5139 43.2733 89.7534 43.3553 89.9859 43.4547C90.181 43.5302 90.3615 43.6394 90.5193 43.7772C90.6601 43.8953 90.7703 44.0458 90.8406 44.2159C90.9211 44.4076 90.9594 44.6144 90.9531 44.8223L90.9595 44.8093ZM109.103 30.9727C108.756 31.4778 108.32 31.9151 107.817 32.2629C106.574 33.129 105.088 33.5742 103.575 33.5336C102.967 33.5162 102.371 33.3575 101.834 33.0698C101.297 32.7822 100.834 32.3735 100.481 31.8758C99.7439 32.4205 98.8511 32.7113 97.9359 32.7047C97.7123 32.7005 97.4891 32.6833 97.2675 32.6531C96.6321 33.1341 95.859 33.3965 95.0631 33.4014C94.5162 33.4021 93.9781 33.2633 93.4992 32.9982C93.0203 32.733 92.6164 32.3502 92.3252 31.8855C91.7275 32.5693 90.7924 33.4014 89.5874 33.4014C88.0674 33.4014 86.962 32.4596 86.962 31.2759C87.0013 30.4878 87.2189 29.719 87.5983 29.0279C87.7493 28.7053 87.9003 28.4505 88.0064 28.2312C88.0811 28.0906 88.1342 27.9394 88.1638 27.7829L88.1124 27.7506C88.0106 27.6992 87.9026 27.6613 87.7911 27.6378C87.6709 27.6085 87.5483 27.5901 87.4248 27.5829C86.9576 28.7855 86.3663 29.9357 85.6606 31.0147C85.5973 31.1225 85.5091 31.2134 85.4034 31.2796C85.2976 31.3459 85.1775 31.3856 85.0532 31.3952C84.8855 31.3867 84.727 31.316 84.6083 31.1968C84.4895 31.0776 84.4191 30.9185 84.4105 30.7502C84.4137 30.6176 84.4526 30.4883 84.523 30.376C84.5776 30.2793 84.6355 30.1987 84.6516 30.1729C85.3303 29.2027 85.856 28.1333 86.2101 27.0024C86.013 26.8198 85.8583 26.5961 85.7567 26.347C85.6551 26.0979 85.6091 25.8295 85.622 25.5606C85.628 25.1397 85.7816 24.7342 86.0558 24.4157C86.1611 24.2736 86.2958 24.1559 86.4505 24.0708C86.6052 23.9856 86.7764 23.9349 86.9524 23.9222C87.3026 23.9404 87.6346 24.0847 87.8875 24.3286C88.0201 24.4196 88.1317 24.5381 88.2149 24.6761C88.298 24.8141 88.3507 24.9683 88.3695 25.1285C88.3651 25.3668 88.3194 25.6025 88.2345 25.8251C88.1802 25.9528 88.1435 26.0874 88.1253 26.2251C88.1253 26.2541 88.1253 26.2605 88.212 26.3025C88.3593 26.3602 88.5169 26.3865 88.6748 26.3799C88.9667 26.3825 89.2576 26.3445 89.5392 26.267C89.7617 26.1888 89.9945 26.1442 90.2301 26.1348C90.3732 26.1413 90.5136 26.1764 90.6431 26.2378C90.7727 26.2992 90.8888 26.3859 90.9847 26.4927C91.0807 26.5995 91.1545 26.7243 91.2021 26.86C91.2496 26.9956 91.2698 27.1394 91.2616 27.283C91.2616 27.8377 90.8856 28.4344 90.5418 29.1246C90.1979 29.8148 89.8734 30.5696 89.8734 31.2598C89.8674 31.3175 89.8731 31.3759 89.8902 31.4313C89.9074 31.4867 89.9355 31.5381 89.973 31.5823C90.0101 31.6162 90.0539 31.6421 90.1014 31.6582C90.149 31.6743 90.1994 31.6803 90.2494 31.6758C90.6589 31.6198 91.0343 31.4171 91.3066 31.105C91.5478 30.8672 91.7632 30.6045 91.9493 30.3212C92.0521 27.1604 94.4847 25.38 96.5348 25.38C97.3182 25.3665 98.0766 25.6565 98.6525 26.1896C98.9395 26.4811 99.1644 26.8281 99.3135 27.2096C99.4627 27.5911 99.533 27.999 99.5201 28.4086C99.4824 29.4489 99.1478 30.4564 98.5561 31.3114C99.0847 31.2416 99.5782 31.0069 99.9668 30.6405C99.9668 30.6115 99.9668 30.5857 99.9668 30.5567C99.965 30.2307 100.084 29.9156 100.301 29.6729C100.498 29.4597 100.731 29.2829 100.989 29.1504C101.261 29.0112 101.547 28.903 101.843 28.8279C101.872 28.7795 102.223 28.2312 103.052 26.9443C103.382 26.4199 103.777 25.9397 104.228 25.5155C104.486 25.2555 104.827 25.0955 105.192 25.0639C105.477 25.0783 105.747 25.1925 105.957 25.3865C106.054 25.4663 106.141 25.5572 106.217 25.6574C106.301 25.7445 106.35 25.8591 106.355 25.9799C106.331 26.2142 106.243 26.4373 106.101 26.625C105.991 26.8073 105.924 27.0125 105.905 27.2249C105.91 27.7997 106.029 28.3676 106.255 28.8956C106.483 29.3962 106.613 29.936 106.638 30.4857C106.643 30.8153 106.588 31.143 106.477 31.4533C107.1 31.1465 107.649 30.7061 108.084 30.1632C108.137 30.0536 108.219 29.9607 108.321 29.8947C108.423 29.8288 108.541 29.7922 108.662 29.789C108.828 29.7889 108.988 29.8533 109.108 29.9688C109.228 30.0842 109.298 30.2417 109.305 30.4083C109.299 30.5452 109.262 30.6788 109.196 30.7986C109.174 30.8627 109.149 30.9252 109.119 30.9856L109.103 30.9727Z" fill="#0056B9"/>
<path d="M59.5 0C26.6394 0 0 14.3269 0 32.0016C0 49.6764 26.6426 64 59.5 64C92.3574 64 119 49.6699 119 32.0016C119 14.3333 92.3606 0 59.5 0ZM99.0253 53.3468C88.8451 58.6782 74.8956 61.9326 59.5 61.9326C44.1044 61.9326 30.1581 58.675 19.9747 53.3435C9.79134 48.0121 3.26485 40.5036 3.26485 31.9984C3.26485 23.4932 9.78813 15.9879 19.9715 10.6436C30.1549 5.2992 44.1044 2.05453 59.4968 2.05453C74.8891 2.05453 88.8451 5.32178 99.0285 10.6436C109.212 15.9653 115.738 23.4803 115.738 31.9887C115.738 40.4971 109.212 48.0121 99.0285 53.3468H99.0253Z" fill="#0056B9"/>
<path d="M96.5316 26.825C96.3273 26.8538 96.1384 26.9503 95.995 27.0991C95.7359 27.3483 95.5189 27.6381 95.3523 27.9571C94.8587 28.8935 94.6068 29.9392 94.6197 30.9985C94.6088 31.2743 94.6768 31.5474 94.8157 31.7855C94.8636 31.8649 94.9317 31.9301 95.013 31.9743C95.0944 32.0185 95.186 32.0402 95.2784 32.0371C95.3298 32.0371 95.3812 31.9887 95.4262 31.979C95.3459 31.8696 95.302 31.7376 95.3009 31.6017C95.3131 31.4449 95.3584 31.2925 95.4337 31.1546C95.5091 31.0167 95.6128 30.8964 95.7379 30.8018C95.9304 30.5898 96.1955 30.4584 96.4802 30.4341H96.5156C96.8282 29.5784 97.0018 28.6778 97.0297 27.7668C97.0487 27.4988 96.9931 27.2308 96.8691 26.9927C96.8352 26.9348 96.7852 26.8881 96.7252 26.8584C96.6653 26.8286 96.598 26.817 96.5316 26.825Z" fill="#0056B9"/>
</svg>
